# xmcd
#
# Track frame offsets: 
#        150
#        14150
#        25230
#        35179
#        44373
#        56439
#        70410
#        83237
#        97228
#        109723
#        121632
#        134898
#        148610
#        161260
#        174555
#        187206
#
# Disc length: 2629 seconds
#
# Revision: 0
# Processed by: cddbd v1.5.2PL0 Copyright (c) Steve Scherf et al.
# Submitted via: ExactAudioCopyFreeDBPlugin 1.0
#
DISCID=ee0a4310
DTITLE=Del and Dawg - Hardcore Bluegrass in the Dawg House
DYEAR=2012
DGENRE=Bluegrass
TTITLE0=John Henry
TTITLE1=Walkin' the Dawg
TTITLE2=Highway of Regret
TTITLE3=Save It! Save It!
TTITLE4=A Good Woman's Love
TTITLE5=Thinking Tonight of My Blue Eyes
TTITLE6=The Hit Parade of Love
TTITLE7=The Tennessee Waltz
TTITLE8=Come Back to Me Little Darlin'
TTITLE9=I'm Waiting to Hear You Call Me Darling
TTITLE10=Unwanted Love
TTITLE11=We Can't Be Darlings Anymore
TTITLE12=Cabin of Love
TTITLE13=Country Boy Rock and Roll
TTITLE14=20-20 Vision
TTITLE15=I'm Sitting on Top of the World
EXTD=
EXTT0=
EXTT1=
EXTT2=
EXTT3=
EXTT4=
EXTT5=
EXTT6=
EXTT7=
EXTT8=
EXTT9=
EXTT10=
EXTT11=
EXTT12=
EXTT13=
EXTT14=
EXTT15=
PLAYORDER=
